<?xml version="1.0" encoding="utf-8"?>
<!-- Generator: Adobe Illustrator 19.0.0, SVG Export Plug-In . SVG Version: 6.00 Build 0)  -->
<svg version="1.1" id="Слой_1" xmlns="http://www.w3.org/2000/svg" xmlns:xlink="http://www.w3.org/1999/xlink" x="0px" y="0px"
	 viewBox="-216.9 413.7 11.3 14.9" style="enable-background:new -216.9 413.7 11.3 14.9;" xml:space="preserve">
<style type="text/css">
	.st0{fill:#313131;}
</style>
<path class="st0" d="M-211,413.7c3.4,0,5.3,1.8,5.3,5c0,3.3-2.2,5.2-6,5.2h-1.8v4.5c0,0.2-0.1,0.3-0.3,0.3h-2.9
	c-0.2,0-0.3-0.1-0.3-0.3V414c0-0.2,0.1-0.3,0.3-0.3H-211z M-211.7,420.9c1.7,0,2.6-0.8,2.6-2.2c0-1.2-0.7-2-1.9-2h-2.5v4.2H-211.7z"
	/>
<path class="st0" d="M-209.4,424.7c0.2,0,0.3,0.1,0.3,0.3v2.4c0,0.2-0.1,0.3-0.3,0.3h-5.8c-0.2,0-0.3-0.1-0.3-0.3V425
	c0-0.2,0.1-0.3,0.3-0.3H-209.4z"/>
</svg>
